# xmcd CD database file
#
# Track frame offsets:
#	150
#	13366
#	28339
#	41034
#	56917
#	70652
#	83589
#	96643
#	111319
#	125701
#	138955
#	154418
#	169646
#	183229
#	197176
#	212005
#	221217
#	233872
#	248771
#	261331
#	274433
#	289449
#	301622
#
# Disc length: 4244 seconds
#
# Revision: 1
# Processed by: cddbd v1.5.2PL0 Copyright (c) Steve Scherf et al.
# Submitted via: CDex 1.50
#
DISCID=6e109217
DTITLE=Robert Pirsig - Zen and the Art of Motorcycle Maintenance - Disc 8
DYEAR=1974
DGENRE=Audio Book
TTITLE0=01
TTITLE1=02
TTITLE2=03
TTITLE3=04
TTITLE4=05
TTITLE5=06
TTITLE6=07
TTITLE7=08
TTITLE8=09
TTITLE9=10
TTITLE10=11
TTITLE11=12
TTITLE12=13
TTITLE13=14
TTITLE14=15
TTITLE15=16
TTITLE16=17
TTITLE17=18
TTITLE18=19
TTITLE19=20
TTITLE20=21
TTITLE21=22
TTITLE22=23
EXTD=YEAR: 1974
EXTT0=
EXTT1=
EXTT2=
EXTT3=
EXTT4=
EXTT5=
EXTT6=
EXTT7=
EXTT8=
EXTT9=
EXTT10=
EXTT11=
EXTT12=
EXTT13=
EXTT14=
EXTT15=
EXTT16=
EXTT17=
EXTT18=
EXTT19=
EXTT20=
EXTT21=
EXTT22=
PLAYORDER=
